<svg width="172" height="172" viewBox="0 0 172 172" fill="none" xmlns="http://www.w3.org/2000/svg">
<g clip-path="url(#clip0_19_47)">
<path fill-rule="evenodd" clip-rule="evenodd" d="M25.1539 39.0042C29.9623 33.8975 37.0083 29.1962 44.8987 25.2978L49.2248 27.8934L49.3114 27.9454L49.3998 27.9941L114.624 63.8675C105.058 69.3986 94.9513 73.4392 86.0223 73.4392C73.4522 73.4392 58.547 65.4312 46.1043 56.5303C40.0337 52.1878 34.8214 47.8339 31.1249 44.5624C29.2797 42.9293 27.8199 41.5727 26.8281 40.6311C26.3324 40.1605 25.9541 39.794 25.7037 39.5491L25.4253 39.2752L25.3605 39.2108L25.3471 39.1975L25.3388 39.1891L25.1539 39.0042ZM80.6487 83.8434C66.0398 82.0251 51.0671 73.2944 39.8515 65.2713C33.4021 60.6578 27.8951 56.0557 24.0021 52.6103C22.0526 50.8849 20.5002 49.4427 19.4284 48.4252L19.2565 48.2616C12.7332 65.8362 12.4797 109.438 20.1187 125.782C26.7036 140.412 58.6838 155.043 80.6487 157.32V83.8434ZM91.3959 157.35V83.8434C100.547 82.7044 109.84 78.8533 118.264 74.1628V87.7688C118.264 90.7366 120.67 93.1425 123.638 93.1425C126.605 93.1425 129.011 90.7366 129.011 87.7688V67.4938C130.101 66.751 131.163 66.0082 132.193 65.2713C138.642 60.6578 144.15 56.0557 148.042 52.6103C149.992 50.8849 151.544 49.4427 152.616 48.4252L153.043 48.0179C159.453 65.5002 159.203 110.435 152.296 125.782C145.681 140.478 113.126 155.175 91.3959 157.35ZM57.2894 20.0678L124.912 57.2601C125.256 57.0176 125.599 56.7743 125.94 56.5303C132.011 52.1878 137.223 47.8339 140.92 44.5624C142.765 42.9293 144.225 41.5727 145.217 40.6311C145.712 40.1605 146.09 39.794 146.341 39.5491L146.619 39.2752L146.684 39.2108L146.697 39.1975L146.706 39.1891L147.004 38.8914C133.945 25.7343 104.172 14.3296 85.7522 14.3296C77.6747 14.3296 67.3789 16.473 57.2894 20.0678ZM32.0653 88.6885C33.8528 86.3194 37.2223 85.8479 39.5914 87.6354C43.3509 90.4719 46.0895 92.2025 48.7337 93.43C51.3528 94.6459 54.0925 95.4672 57.9613 96.2646C60.8679 96.8637 62.7386 99.7057 62.1395 102.612C61.5404 105.519 58.6984 107.39 55.7918 106.791C51.4575 105.897 47.845 104.866 44.2083 103.178C40.5967 101.501 37.1761 99.276 33.1185 96.2146C30.7494 94.4272 30.2779 91.0576 32.0653 88.6885Z" fill="#FF6363"/>
</g>
<defs>
<clipPath id="clip0_19_47">
<rect width="171.955" height="171.955" fill="white" transform="translate(0.0446777)"/>
</clipPath>
</defs>
</svg>
